<svg id="Слой_1" data-name="Слой 1" xmlns="http://www.w3.org/2000/svg" viewBox="0 0 622.45 68.11"><defs><style>.cls-1{fill:#fff;}</style></defs><title>logo_ulmart_white</title><path class="cls-1" d="M256.16,697.64a13.81,13.81,0,0,1-5.18-3.85,13.56,13.56,0,0,1-2.66-5.41,25.66,25.66,0,0,1-.74-6.14v-45.5a1.87,1.87,0,0,1,.5-1.51,2.51,2.51,0,0,1,1.61-.41h9.72a2.92,2.92,0,0,1,1.79.37,2.11,2.11,0,0,1,.41,1.56v44.5c0,2.32.57,3.88,1.7,4.67a7.55,7.55,0,0,0,4.45,1.19h23.3a2.21,2.21,0,0,1,1.37.31c.24.22.37.75.37,1.61v8.17c0,1.29-.58,1.93-1.74,1.93H264.55A20.64,20.64,0,0,1,256.16,697.64Z" transform="translate(-64.72 -633.64)"/><path class="cls-1" d="M354.46,662.13h-.55l-3.81,8.54-7.71,16.88a8,8,0,0,1-2.09,3.21,5.18,5.18,0,0,1-3.2.83H332a4.7,4.7,0,0,1-3.2-.83,10.92,10.92,0,0,1-2-3.21L321,675.62l-5.76-12.38h-.55v34q0,1.28-.47,1.56a3.68,3.68,0,0,1-1.67.27h-9.47a3.76,3.76,0,0,1-1.58-.27q-.56-.28-.56-1.56V641.21q0-3.48,1.35-5c.9-1,2.44-1.46,4.6-1.46h5.39a6.33,6.33,0,0,1,3.86,1,8.93,8.93,0,0,1,2.37,3.35l10.13,22.39,5.76,13h.37l6.32-14.31,9.48-20.92a8.77,8.77,0,0,1,2.46-3.49,7.25,7.25,0,0,1,4.32-1H362a6.84,6.84,0,0,1,4.46,1.24c1,.82,1.49,2.4,1.49,4.72v56.51c0,.85-.16,1.38-.46,1.56a3.73,3.73,0,0,1-1.68.27h-9.25a3.54,3.54,0,0,1-1.55-.27c-.34-.19-.51-.71-.51-1.56Z" transform="translate(-64.72 -633.64)"/><path class="cls-1" d="M414.54,685.81h-21L390,697.46a2.64,2.64,0,0,1-.78,1.33,2.9,2.9,0,0,1-1.79.41H376.65c-.67,0-1.08-.18-1.24-.55a2,2,0,0,1,0-1.29l19.08-57.52a10.54,10.54,0,0,1,1.05-2.53,4.74,4.74,0,0,1,3.21-2.29,11.68,11.68,0,0,1,2.43-.23h5.51a22.32,22.32,0,0,1,2.66.14,4.4,4.4,0,0,1,1.93.69,4.68,4.68,0,0,1,1.42,1.56,14.29,14.29,0,0,1,1.14,2.66l19.08,57.52a2,2,0,0,1,0,1.2c-.12.42-.52.64-1.19.64H420.78a5.43,5.43,0,0,1-1.7-.23,1.62,1.62,0,0,1-1-1.24Zm-17.7-11.29h14.4l-3.49-11.69-3.4-13.16h-.55l-3.49,13.16Z" transform="translate(-64.72 -633.64)"/><path class="cls-1" d="M479.51,669a8.61,8.61,0,0,1,4.41,3.9,28.17,28.17,0,0,1,2.11,5.74L490.71,697a2.23,2.23,0,0,1,0,1.33c-.15.52-.59.78-1.33.78H479.7a10,10,0,0,1-2.11-.23,2.11,2.11,0,0,1-1.56-1.61L472,681q-1.19-4.5-3.53-6.24a10.6,10.6,0,0,0-6.47-1.74H453.1v24.12a2.32,2.32,0,0,1-.37,1.61,3,3,0,0,1-1.75.32h-9.82a2.55,2.55,0,0,1-1.6-.41,1.87,1.87,0,0,1-.51-1.51V640.39a6.75,6.75,0,0,1,1.1-4.17c.74-.94,2.2-1.42,4.4-1.42H467q10,0,15.46,5T488,653.42a18.4,18.4,0,0,1-2.2,8.81,15.07,15.07,0,0,1-6.33,6.33Zm-5.87-14.68a9.07,9.07,0,0,0-.36-2.48,6.13,6.13,0,0,0-3.67-4.08,9.76,9.76,0,0,0-3.95-.69H453.19v14.67h12.2c2.69,0,4.74-.68,6.15-2.06A7.18,7.18,0,0,0,473.64,654.34Z" transform="translate(-64.72 -633.64)"/><path class="cls-1" d="M540.44,646.72H523.83v50.36a2.12,2.12,0,0,1-.42,1.56,2.9,2.9,0,0,1-1.79.37h-9.81a2.49,2.49,0,0,1-1.6-.41,1.86,1.86,0,0,1-.51-1.52V646.72H493.46c-1.16,0-1.74-.61-1.74-1.84v-8.16a2.31,2.31,0,0,1,.36-1.56,1.94,1.94,0,0,1,1.38-.37h47a2.1,2.1,0,0,1,1.46.37,2.28,2.28,0,0,1,.37,1.56v8.16A1.62,1.62,0,0,1,540.44,646.72Z" transform="translate(-64.72 -633.64)"/><path class="cls-1" d="M237.86,690.53a10.34,10.34,0,0,1-1.43,5.55q-1.43,2.31-5.32,3.33a29.1,29.1,0,0,1-4.07.69q-2.22.23-4.44.32t-4.16.14q-1.94,0-3.14,0a60.27,60.27,0,0,1-13.63-1.34,20.73,20.73,0,0,1-9.29-4.58,18.68,18.68,0,0,1-5.27-8.6,46.26,46.26,0,0,1-1.66-13.49l-.09-35.86a1.8,1.8,0,0,1,.56-1.53,2.59,2.59,0,0,1,1.57-.41h9.89a3,3,0,0,1,1.81.37,2.14,2.14,0,0,1,.41,1.57v36.69a29.92,29.92,0,0,0,.65,6.61,10.29,10.29,0,0,0,2.31,4.67,9.77,9.77,0,0,0,4.49,2.73,24.9,24.9,0,0,0,7.25.88c.43,0,1,0,1.76,0l2.45-.09c.89,0,1.82-.1,2.77-.19a20.79,20.79,0,0,0,2.63-.42V636.74a1.9,1.9,0,0,1,.51-1.53,2.56,2.56,0,0,1,1.62-.41h9.8q1.39,0,1.71.37a2.6,2.6,0,0,1,.32,1.57Z" transform="translate(-64.72 -633.64)"/><path class="cls-1" d="M558.91,692.19a7.9,7.9,0,0,1-2.43,5.87,8.24,8.24,0,0,1-6,2.39,8.5,8.5,0,0,1-3.3-.65,8.63,8.63,0,0,1-2.71-1.74,8.39,8.39,0,0,1-1.83-2.61,8,8,0,0,1,0-6.51,8.33,8.33,0,0,1,1.83-2.62,8.72,8.72,0,0,1,2.71-1.74,8.56,8.56,0,0,1,3.3-.65,8.25,8.25,0,0,1,6,2.39A7.9,7.9,0,0,1,558.91,692.19Z" transform="translate(-64.72 -633.64)"/><path class="cls-1" d="M613.69,669.27a8.64,8.64,0,0,1,4.44,3.93,28.38,28.38,0,0,1,2.13,5.77L625,697.46a2.26,2.26,0,0,1,0,1.34c-.15.53-.6.79-1.34.79h-9.7a10.33,10.33,0,0,1-2.13-.23,2.15,2.15,0,0,1-1.57-1.62l-4.07-16.36q-1.2-4.53-3.56-6.29a10.69,10.69,0,0,0-6.52-1.76h-9v24.31c0,.86-.12,1.4-.37,1.62a3,3,0,0,1-1.76.32h-9.89a2.54,2.54,0,0,1-1.62-.41,1.89,1.89,0,0,1-.51-1.52V640.43a6.8,6.8,0,0,1,1.11-4.21q1.11-1.43,4.44-1.43h22.65q10.07,0,15.57,5.08t5.5,13.68a18.57,18.57,0,0,1-2.22,8.87,15.17,15.17,0,0,1-6.38,6.38Zm-5.92-14.79a9.27,9.27,0,0,0-.37-2.5,6.23,6.23,0,0,0-3.7-4.11,9.9,9.9,0,0,0-4-.69H587.17V662h12.29q4.06,0,6.19-2.08A7.22,7.22,0,0,0,607.78,654.48Z" transform="translate(-64.72 -633.64)"/><path class="cls-1" d="M687.17,690.62a10.31,10.31,0,0,1-1.43,5.54q-1.43,2.32-5.31,3.33a28.71,28.71,0,0,1-4.07.69q-2.22.23-4.44.33t-4.16.14q-1.94,0-3.14,0A60.16,60.16,0,0,1,651,699.35a20.73,20.73,0,0,1-9.29-4.58,18.69,18.69,0,0,1-5.27-8.59,46.34,46.34,0,0,1-1.66-13.49l-.09-35.86a1.79,1.79,0,0,1,.56-1.52,2.57,2.57,0,0,1,1.57-.42h9.89a3,3,0,0,1,1.8.37,2.12,2.12,0,0,1,.41,1.57v36.69a29.72,29.72,0,0,0,.65,6.61,10.24,10.24,0,0,0,2.31,4.67,9.76,9.76,0,0,0,4.48,2.72,24.84,24.84,0,0,0,7.26.88c.43,0,1,0,1.76,0l2.45-.09c.89,0,1.82-.09,2.77-.19a20.46,20.46,0,0,0,2.64-.41V636.83a1.88,1.88,0,0,1,.51-1.52,2.54,2.54,0,0,1,1.62-.42h9.79c.93,0,1.5.12,1.71.37a2.59,2.59,0,0,1,.32,1.57Z" transform="translate(-64.72 -633.64)"/><path class="cls-1" d="M121,633.65h-.72a37.64,37.64,0,0,0-13,2.39A43.74,43.74,0,0,0,96.2,642.2a68.54,68.54,0,0,0-16.25,18.39c-8.55,13.58-13.22,29.34-15.22,39.76H84.43a.94.94,0,0,0,1-.85,103.2,103.2,0,0,1,11.83-28,48.44,48.44,0,0,1,11.26-13c3.9-3,7.78-4.41,11.8-4.41H121a13.57,13.57,0,0,1,13,13.53h0a13.55,13.55,0,0,1-27.09,0,12.15,12.15,0,0,1,.21-2.18c0-.1-.09-.15-.16-.07a53.87,53.87,0,0,0-6.22,8.2,89.48,89.48,0,0,0-7.3,14.59.32.32,0,0,0,0,.2,34,34,0,0,0,61-20.73h0A34.08,34.08,0,0,0,121,633.65Z" transform="translate(-64.72 -633.64)"/><path class="cls-1" d="M64.88,684a115.11,115.11,0,0,1,11.69-25.49,83.4,83.4,0,0,1,8.83-11.7.34.34,0,0,0,.1-.27v-10.3a1.14,1.14,0,0,0-1.14-1.14H65.85a1.14,1.14,0,0,0-1.13,1.14v47.75C64.72,684.16,64.85,684.08,64.88,684Z" transform="translate(-64.72 -633.64)"/></svg>