<svg id="Слой_1" data-name="Слой 1" xmlns="http://www.w3.org/2000/svg" xmlns:xlink="http://www.w3.org/1999/xlink" viewBox="0 0 652.67 101.26"><defs><style>.cls-1{fill:none;}.cls-2{fill:#c20a2a;}.cls-3{fill:#c20b25;}.cls-4{clip-path:url(#clip-path);}.cls-5{fill:url(#linear-gradient);}.cls-6{clip-path:url(#clip-path-2);}.cls-7{fill:url(#linear-gradient-2);}.cls-8{clip-path:url(#clip-path-3);}.cls-9{fill:url(#linear-gradient-3);}.cls-10{clip-path:url(#clip-path-4);}.cls-11{fill:url(#linear-gradient-4);}</style><clipPath id="clip-path" transform="translate(-48.5 -617.01)"><path class="cls-1" d="M120.78,667.64a13.52,13.52,0,1,1,13.52,13.52,13.53,13.53,0,0,1-13.52-13.52m-20.48,0a34,34,0,1,0,34-34,34,34,0,0,0-34,34"/></clipPath><linearGradient id="linear-gradient" x1="-9.79" y1="987.08" x2="-6.49" y2="987.08" gradientTransform="matrix(-10.14, 0, 0, 10.14, 20.25, -9960.94)" gradientUnits="userSpaceOnUse"><stop offset="0" stop-color="#c94f1b"/><stop offset="0.05" stop-color="#c94b1c"/><stop offset="0.68" stop-color="#c41c26"/><stop offset="1" stop-color="#c20a2a"/></linearGradient><clipPath id="clip-path-2" transform="translate(-48.5 -617.01)"><path class="cls-1" d="M130.82,633.82a34,34,0,0,0,3.48,67.82V681.17a13.52,13.52,0,0,1-3.18-26.67,13.28,13.28,0,0,1,3.18-.38V633.64a32.36,32.36,0,0,0-3.48.18"/></clipPath><linearGradient id="linear-gradient-2" x1="-42.16" y1="997.07" x2="-38.86" y2="997.07" gradientTransform="matrix(0, -13.73, -13.73, 0, 13807.32, 125.2)" gradientUnits="userSpaceOnUse"><stop offset="0" stop-color="#c10d19"/><stop offset="0.12" stop-color="#c10d19"/><stop offset="0.43" stop-color="#c10d19"/><stop offset="0.54" stop-color="#ba101b"/><stop offset="0.7" stop-color="#a71920"/><stop offset="0.89" stop-color="#882828"/><stop offset="0.94" stop-color="#7f2c2a"/><stop offset="1" stop-color="#7f2c2a"/></linearGradient><clipPath id="clip-path-3" transform="translate(-48.5 -617.01)"><path class="cls-1" d="M79.86,635a1.15,1.15,0,0,0-1.14,1.14v64l.1-.06H98.33a1.08,1.08,0,0,0,1.13-1.07V636.19A1.14,1.14,0,0,0,98.33,635Z"/></clipPath><linearGradient id="linear-gradient-3" x1="-49.15" y1="930.43" x2="-45.85" y2="930.43" gradientTransform="matrix(0, 14.08, 14.08, 0, -13014.09, 1328.51)" gradientUnits="userSpaceOnUse"><stop offset="0" stop-color="#ca4f2b"/><stop offset="0.15" stop-color="#c83b2b"/><stop offset="0.44" stop-color="#c20a2a"/><stop offset="0.58" stop-color="#b6102a"/><stop offset="0.83" stop-color="#97202a"/><stop offset="1" stop-color="#7f2c2a"/></linearGradient><clipPath id="clip-path-4" transform="translate(-48.5 -617.01)"><path class="cls-1" d="M134.28,633.64h-.11a37.67,37.67,0,0,0-13,2.39,44.06,44.06,0,0,0-11.06,6.15,68.41,68.41,0,0,0-16.22,18.36c-8.54,13.56-13.21,29.29-15.2,39.7H98.4a.94.94,0,0,0,1-.84,102.87,102.87,0,0,1,11.81-27.94,48.28,48.28,0,0,1,11.24-12.94c3.9-2.94,7.77-4.4,11.78-4.4h.61a13.54,13.54,0,0,1,12.94,13.5H168.3a34,34,0,0,0-33.42-34h-.6Z"/></clipPath><linearGradient id="linear-gradient-4" x1="-60.43" y1="955.41" x2="-57.14" y2="955.41" gradientTransform="matrix(27.17, 0, 0, -27.17, 1671.99, 26005.16)" gradientUnits="userSpaceOnUse"><stop offset="0" stop-color="#cb551b"/><stop offset="0.62" stop-color="#c20a2a"/><stop offset="0.72" stop-color="#c31727"/><stop offset="0.91" stop-color="#c73b1f"/><stop offset="1" stop-color="#c94f1b"/></linearGradient></defs><title>logo_ulmart_red</title><path class="cls-2" d="M270.16,697.64a13.81,13.81,0,0,1-5.18-3.85,13.56,13.56,0,0,1-2.66-5.41,25.66,25.66,0,0,1-.74-6.14v-45.5a1.87,1.87,0,0,1,.5-1.51,2.51,2.51,0,0,1,1.61-.41h9.72a2.92,2.92,0,0,1,1.79.37,2.11,2.11,0,0,1,.41,1.56v44.5c0,2.32.57,3.88,1.7,4.67a7.55,7.55,0,0,0,4.45,1.19h23.3a2.21,2.21,0,0,1,1.37.31c.24.22.37.75.37,1.61v8.16c0,1.29-.58,1.93-1.74,1.93H278.55A20.64,20.64,0,0,1,270.16,697.64Z" transform="translate(-48.5 -617.01)"/><path class="cls-2" d="M368.46,662.13h-.55l-3.81,8.54-7.71,16.88a8,8,0,0,1-2.08,3.21,5.18,5.18,0,0,1-3.2.83H346a4.7,4.7,0,0,1-3.2-.83,10.92,10.92,0,0,1-2-3.21L335,675.62l-5.76-12.38h-.55v34q0,1.28-.47,1.56a3.68,3.68,0,0,1-1.67.27h-9.47a3.76,3.76,0,0,1-1.58-.27q-.56-.28-.56-1.56V641.21q0-3.48,1.35-5c.9-1,2.44-1.46,4.6-1.46h5.39a6.33,6.33,0,0,1,3.86,1,8.93,8.93,0,0,1,2.37,3.35l10.13,22.39,5.76,13h.37l6.32-14.31,9.48-20.91a8.77,8.77,0,0,1,2.46-3.49,7.26,7.26,0,0,1,4.32-1H376a6.84,6.84,0,0,1,4.46,1.24c1,.82,1.49,2.4,1.49,4.72v56.51c0,.85-.16,1.38-.46,1.56a3.73,3.73,0,0,1-1.68.27h-9.25a3.54,3.54,0,0,1-1.55-.27c-.34-.19-.51-.71-.51-1.56Z" transform="translate(-48.5 -617.01)"/><path class="cls-2" d="M428.54,685.81h-21L404,697.46a2.64,2.64,0,0,1-.78,1.33,2.9,2.9,0,0,1-1.79.41H390.65c-.67,0-1.08-.18-1.24-.55a2,2,0,0,1,0-1.29l19.08-57.52a10.53,10.53,0,0,1,1.05-2.53,4.74,4.74,0,0,1,3.21-2.29,11.68,11.68,0,0,1,2.43-.23h5.51a22.32,22.32,0,0,1,2.66.14,4.4,4.4,0,0,1,1.93.69,4.68,4.68,0,0,1,1.42,1.56,14.31,14.31,0,0,1,1.14,2.66l19.08,57.52a2,2,0,0,1,0,1.2c-.12.42-.52.64-1.19.64H434.78a5.43,5.43,0,0,1-1.7-.23,1.62,1.62,0,0,1-1-1.24Zm-17.7-11.29h14.4l-3.49-11.69-3.4-13.16h-.55l-3.49,13.16Z" transform="translate(-48.5 -617.01)"/><path class="cls-2" d="M493.51,669a8.61,8.61,0,0,1,4.41,3.9,28.17,28.17,0,0,1,2.11,5.74L504.71,697a2.23,2.23,0,0,1,0,1.33c-.15.52-.59.78-1.33.78H493.7a10,10,0,0,1-2.11-.23,2.11,2.11,0,0,1-1.56-1.61L486,681q-1.19-4.5-3.53-6.24a10.6,10.6,0,0,0-6.47-1.74H467.1v24.13a2.32,2.32,0,0,1-.37,1.61,3,3,0,0,1-1.75.32h-9.82a2.55,2.55,0,0,1-1.6-.41,1.87,1.87,0,0,1-.51-1.51V640.39a6.75,6.75,0,0,1,1.1-4.17c.74-.94,2.2-1.42,4.4-1.42H481q10,0,15.46,5T502,653.42a18.4,18.4,0,0,1-2.2,8.81,15.07,15.07,0,0,1-6.33,6.33Zm-5.87-14.68a9.07,9.07,0,0,0-.36-2.48,6.14,6.14,0,0,0-3.67-4.08,9.76,9.76,0,0,0-3.95-.69H467.19v14.67h12.2c2.69,0,4.74-.68,6.15-2.06A7.18,7.18,0,0,0,487.64,654.34Z" transform="translate(-48.5 -617.01)"/><path class="cls-2" d="M554.44,646.72H537.83v50.36a2.12,2.12,0,0,1-.42,1.56,2.9,2.9,0,0,1-1.79.37h-9.81a2.49,2.49,0,0,1-1.6-.41,1.86,1.86,0,0,1-.51-1.52V646.72H507.46c-1.16,0-1.74-.61-1.74-1.84v-8.16a2.31,2.31,0,0,1,.36-1.56,1.94,1.94,0,0,1,1.38-.37h47a2.1,2.1,0,0,1,1.46.37,2.28,2.28,0,0,1,.37,1.56v8.16A1.62,1.62,0,0,1,554.44,646.72Z" transform="translate(-48.5 -617.01)"/><path class="cls-3" d="M251.86,690.53a10.34,10.34,0,0,1-1.43,5.55q-1.43,2.31-5.32,3.33a29.08,29.08,0,0,1-4.07.69q-2.22.23-4.44.32t-4.16.14q-1.94,0-3.14,0a60.27,60.27,0,0,1-13.63-1.34,20.73,20.73,0,0,1-9.29-4.58,18.68,18.68,0,0,1-5.27-8.6,46.26,46.26,0,0,1-1.66-13.49l-.09-35.86a1.8,1.8,0,0,1,.56-1.53,2.59,2.59,0,0,1,1.57-.41h9.89a3,3,0,0,1,1.81.37,2.14,2.14,0,0,1,.41,1.57v36.69a29.92,29.92,0,0,0,.65,6.61,10.29,10.29,0,0,0,2.31,4.67,9.77,9.77,0,0,0,4.49,2.73,24.9,24.9,0,0,0,7.25.88c.43,0,1,0,1.76,0l2.45-.09c.89,0,1.82-.1,2.77-.19a20.77,20.77,0,0,0,2.63-.42V636.74a1.9,1.9,0,0,1,.51-1.53,2.56,2.56,0,0,1,1.62-.41h9.8q1.39,0,1.71.37a2.6,2.6,0,0,1,.32,1.57Z" transform="translate(-48.5 -617.01)"/><path class="cls-3" d="M572.91,692.19a7.9,7.9,0,0,1-2.43,5.87,8.24,8.24,0,0,1-6,2.39,8.5,8.5,0,0,1-3.3-.65,8.63,8.63,0,0,1-2.71-1.74,8.39,8.39,0,0,1-1.83-2.61,8,8,0,0,1,0-6.51,8.33,8.33,0,0,1,1.83-2.62,8.72,8.72,0,0,1,2.71-1.74,8.56,8.56,0,0,1,3.3-.65,8.25,8.25,0,0,1,6,2.39A7.9,7.9,0,0,1,572.91,692.19Z" transform="translate(-48.5 -617.01)"/><path class="cls-3" d="M627.69,669.27a8.64,8.64,0,0,1,4.44,3.93,28.39,28.39,0,0,1,2.13,5.77L639,697.46a2.26,2.26,0,0,1,0,1.34c-.15.53-.6.79-1.34.79h-9.7a10.33,10.33,0,0,1-2.13-.23,2.15,2.15,0,0,1-1.57-1.62l-4.07-16.36q-1.2-4.53-3.56-6.29a10.69,10.69,0,0,0-6.52-1.76h-9v24.31c0,.86-.12,1.4-.37,1.62a3,3,0,0,1-1.76.32h-9.89a2.54,2.54,0,0,1-1.62-.41,1.89,1.89,0,0,1-.51-1.52V640.43a6.8,6.8,0,0,1,1.11-4.21q1.11-1.43,4.44-1.43h22.65q10.07,0,15.57,5.08t5.5,13.68a18.57,18.57,0,0,1-2.22,8.87,15.17,15.17,0,0,1-6.38,6.38Zm-5.92-14.79a9.28,9.28,0,0,0-.37-2.5,6.23,6.23,0,0,0-3.7-4.11,9.9,9.9,0,0,0-4-.69H601.17V662h12.29q4.07,0,6.19-2.08A7.22,7.22,0,0,0,621.78,654.48Z" transform="translate(-48.5 -617.01)"/><path class="cls-3" d="M701.17,690.62a10.31,10.31,0,0,1-1.43,5.54q-1.43,2.32-5.31,3.33a28.69,28.69,0,0,1-4.07.69q-2.22.23-4.44.33t-4.16.14q-1.94,0-3.14,0A60.16,60.16,0,0,1,665,699.35a20.73,20.73,0,0,1-9.29-4.58,18.69,18.69,0,0,1-5.27-8.59,46.34,46.34,0,0,1-1.66-13.49l-.09-35.86a1.79,1.79,0,0,1,.56-1.52,2.57,2.57,0,0,1,1.57-.42h9.89a3,3,0,0,1,1.8.37,2.12,2.12,0,0,1,.41,1.57v36.69a29.72,29.72,0,0,0,.65,6.61,10.23,10.23,0,0,0,2.31,4.67,9.76,9.76,0,0,0,4.48,2.72,24.84,24.84,0,0,0,7.26.88c.43,0,1,0,1.76,0l2.45-.09c.89,0,1.82-.09,2.77-.19a20.47,20.47,0,0,0,2.64-.41V636.83a1.88,1.88,0,0,1,.51-1.52,2.55,2.55,0,0,1,1.62-.42h9.79c.93,0,1.5.12,1.71.37a2.59,2.59,0,0,1,.32,1.57Z" transform="translate(-48.5 -617.01)"/><g class="cls-4"><rect class="cls-5" x="51.8" y="16.63" width="68" height="68"/></g><g class="cls-6"><rect class="cls-7" x="82.69" y="630.52" width="69.22" height="74.25" transform="translate(-442.51 -394.43) rotate(-39)"/></g><g class="cls-8"><rect class="cls-9" x="62.27" y="634.82" width="53.65" height="65.65" transform="translate(-406.61 -453.05) rotate(-34)"/></g><g class="cls-10"><rect class="cls-11" x="30.22" y="16.62" width="89.58" height="66.6"/></g></svg>